<svg xmlns="http://www.w3.org/2000/svg" xmlns:xlink="http://www.w3.org/1999/xlink" width="500" zoomAndPan="magnify" viewBox="0 0 375 374.999991" height="500" preserveAspectRatio="xMidYMid meet" version="1.0"><defs><filter x="0%" y="0%" width="100%" height="100%" id="1bc8dbe73b"><feColorMatrix values="0 0 0 0 1 0 0 0 0 1 0 0 0 0 1 0 0 0 1 0" color-interpolation-filters="sRGB"/></filter><g/><mask id="eaac048250"><g filter="url(#1bc8dbe73b)"><rect x="-37.5" width="450" fill="#000000" y="-37.499999" height="449.999989" fill-opacity="0.29"/></g></mask><clipPath id="2279bae430"><path d="M 0.640625 59 L 114.878906 59 L 114.878906 180 L 0.640625 180 Z M 0.640625 59 " clip-rule="nonzero"/></clipPath><clipPath id="ab5f0fc034"><rect x="0" width="115" y="0" height="230"/></clipPath><mask id="acd0d19dcb"><g filter="url(#1bc8dbe73b)"><rect x="-37.5" width="450" fill="#000000" y="-37.499999" height="449.999989" fill-opacity="0.29"/></g></mask><clipPath id="0b990b89e9"><rect x="0" width="177" y="0" height="229"/></clipPath><clipPath id="5736b6af2d"><path d="M 26.664062 144.152344 L 348.335938 144.152344 L 348.335938 177.902344 L 26.664062 177.902344 Z M 26.664062 144.152344 " clip-rule="nonzero"/></clipPath><clipPath id="a8476b200d"><path d="M 0.664062 0.152344 L 322.335938 0.152344 L 322.335938 33.902344 L 0.664062 33.902344 Z M 0.664062 0.152344 " clip-rule="nonzero"/></clipPath><clipPath id="fb78198b22"><rect x="0" width="323" y="0" height="34"/></clipPath></defs><rect x="-37.5" width="450" fill="#ffffff" y="-37.499999" height="449.999989" fill-opacity="1"/><rect x="-37.5" width="450" fill="#f4f4f4" y="-37.499999" height="449.999989" fill-opacity="1"/><g mask="url(#eaac048250)"><g transform="matrix(1, 0, 0, 1, 212, 46)"><g clip-path="url(#ab5f0fc034)"><g clip-path="url(#2279bae430)"><g fill="#34d399" fill-opacity="1"><g transform="translate(0.76667, 179.526194)"><g><path d="M 52.75 0 L 14.28125 -109.203125 C 13.050781 -112.671875 11.59375 -115.046875 9.90625 -116.328125 C 8.226562 -117.617188 5.65625 -118.265625 2.1875 -118.265625 L 0 -118.265625 L 0 -119.953125 L 46.203125 -119.953125 L 46.203125 -118.265625 L 42.171875 -118.265625 C 38.585938 -118.265625 35.953125 -117.789062 34.265625 -116.84375 C 32.585938 -115.894531 31.75 -114.242188 31.75 -111.890625 C 31.75 -109.648438 32.3125 -107.015625 33.4375 -103.984375 L 54.265625 -44.015625 C 58.179688 -32.929688 61.207031 -23.1875 63.34375 -14.78125 C 64.570312 -19.039062 66.023438 -23.773438 67.703125 -28.984375 C 69.378906 -34.191406 71.003906 -39.203125 72.578125 -44.015625 L 91.734375 -102.640625 C 92.285156 -104.441406 92.726562 -106.015625 93.0625 -107.359375 C 93.40625 -108.703125 93.578125 -109.929688 93.578125 -111.046875 C 93.578125 -113.734375 92.648438 -115.609375 90.796875 -116.671875 C 88.953125 -117.734375 86.125 -118.265625 82.3125 -118.265625 L 72.40625 -118.265625 L 72.40625 -119.953125 L 113.40625 -119.953125 L 113.40625 -118.265625 L 107.359375 -118.265625 C 104.109375 -118.265625 101.585938 -117.3125 99.796875 -115.40625 C 98.003906 -113.507812 96.320312 -110.15625 94.75 -105.34375 L 59.96875 0 Z M 52.75 0 "/></g></g></g></g></g></g></g><g mask="url(#acd0d19dcb)"><g transform="matrix(1, 0, 0, 1, 42, 46)"><g clip-path="url(#0b990b89e9)"><g fill="#34d399" fill-opacity="1"><g transform="translate(0.435606, 178.755796)"><g><path d="M 48.828125 0 L 15.609375 -109.234375 C 14.597656 -112.585938 13.253906 -114.90625 11.578125 -116.1875 C 9.898438 -117.476562 7.269531 -118.125 3.6875 -118.125 L 1.515625 -118.125 L 1.515625 -119.8125 L 47.65625 -119.8125 L 47.65625 -118.125 L 43.796875 -118.125 C 40.328125 -118.125 37.78125 -117.617188 36.15625 -116.609375 C 34.539062 -115.609375 33.734375 -113.878906 33.734375 -111.421875 C 33.734375 -109.628906 34.175781 -107.109375 35.0625 -103.859375 L 53.03125 -44.796875 C 54.59375 -39.765625 55.957031 -34.644531 57.125 -29.4375 C 58.300781 -24.238281 59.453125 -18.898438 60.578125 -13.421875 C 61.242188 -16.671875 62.164062 -20.613281 63.34375 -25.25 C 64.519531 -29.894531 65.78125 -34.898438 67.125 -40.265625 L 87.09375 -118.625 L 94.140625 -118.625 L 118.625 -45.96875 C 120.976562 -39.039062 123.019531 -32.5 124.75 -26.34375 C 126.488281 -20.1875 127.804688 -15.207031 128.703125 -11.40625 C 129.265625 -13.875 129.765625 -15.890625 130.203125 -17.453125 C 130.648438 -19.015625 131.097656 -20.742188 131.546875 -22.640625 C 131.992188 -24.546875 132.722656 -27.234375 133.734375 -30.703125 L 152.359375 -101.1875 C 153.367188 -104.875 153.875 -107.835938 153.875 -110.078125 C 153.875 -113.097656 152.945312 -115.191406 151.09375 -116.359375 C 149.25 -117.535156 146.367188 -118.125 142.453125 -118.125 L 138.59375 -118.125 L 138.59375 -119.8125 L 171.15625 -119.8125 L 171.15625 -118.125 L 167.96875 -118.125 C 164.5 -118.125 161.835938 -117.171875 159.984375 -115.265625 C 158.140625 -113.367188 156.550781 -109.960938 155.21875 -105.046875 L 127.359375 0 L 117.296875 0 L 84.0625 -100.171875 L 59.234375 0 Z M 48.828125 0 "/></g></g></g></g></g></g><g clip-path="url(#5736b6af2d)"><g transform="matrix(1, 0, 0, 1, 26, 144)"><g clip-path="url(#fb78198b22)"><g clip-path="url(#a8476b200d)"><path fill="#f4f4f4" d="M 0.664062 0.152344 L 322.332031 0.152344 L 322.332031 33.902344 L 0.664062 33.902344 Z M 0.664062 0.152344 " fill-opacity="1" fill-rule="nonzero"/></g></g></g></g><g fill="#000000" fill-opacity="1"><g transform="translate(78.826204, 251.528187)"><g><path d="M 2.640625 -3.203125 C 1.253906 -3.523438 0.5625 -4.117188 0.5625 -4.984375 C 0.5625 -5.628906 0.785156 -6.113281 1.234375 -6.4375 C 1.679688 -6.75 2.203125 -6.90625 2.796875 -6.90625 C 4.128906 -6.90625 4.914062 -6.410156 5.15625 -5.421875 L 4.40625 -5.421875 C 4.269531 -6.003906 3.734375 -6.296875 2.796875 -6.296875 C 2.140625 -6.296875 1.6875 -6.101562 1.4375 -5.71875 C 1.332031 -5.570312 1.28125 -5.390625 1.28125 -5.171875 C 1.28125 -4.753906 1.503906 -4.429688 1.953125 -4.203125 C 2.171875 -4.085938 2.625 -3.941406 3.3125 -3.765625 C 4.007812 -3.578125 4.515625 -3.375 4.828125 -3.15625 C 5.265625 -2.851562 5.484375 -2.425781 5.484375 -1.875 C 5.484375 -1.1875 5.210938 -0.664062 4.671875 -0.3125 C 4.210938 -0.0195312 3.648438 0.125 2.984375 0.125 C 1.484375 0.125 0.613281 -0.445312 0.375 -1.59375 L 1.203125 -1.59375 C 1.328125 -0.875 1.921875 -0.515625 2.984375 -0.515625 C 3.742188 -0.515625 4.273438 -0.722656 4.578125 -1.140625 C 4.703125 -1.304688 4.765625 -1.53125 4.765625 -1.8125 C 4.765625 -2.09375 4.65625 -2.328125 4.4375 -2.515625 C 4.113281 -2.765625 3.515625 -2.992188 2.640625 -3.203125 Z M 2.640625 -3.203125 "/></g></g></g><g fill="#000000" fill-opacity="1"><g transform="translate(92.243909, 251.528187)"><g><path d="M 6.734375 -3.421875 C 6.734375 -4.179688 6.460938 -4.835938 5.921875 -5.390625 C 5.367188 -5.929688 4.707031 -6.203125 3.9375 -6.203125 C 3.175781 -6.203125 2.519531 -5.929688 1.96875 -5.390625 C 1.425781 -4.835938 1.15625 -4.179688 1.15625 -3.421875 C 1.15625 -2.648438 1.425781 -1.988281 1.96875 -1.4375 C 2.519531 -0.894531 3.175781 -0.625 3.9375 -0.625 C 4.707031 -0.625 5.367188 -0.894531 5.921875 -1.4375 C 6.460938 -1.988281 6.734375 -2.648438 6.734375 -3.421875 Z M 7.4375 -3.421875 C 7.4375 -2.941406 7.347656 -2.488281 7.171875 -2.0625 C 6.984375 -1.632812 6.734375 -1.265625 6.421875 -0.953125 C 6.097656 -0.628906 5.722656 -0.378906 5.296875 -0.203125 C 4.867188 -0.015625 4.414062 0.078125 3.9375 0.078125 C 3.457031 0.078125 3.007812 -0.015625 2.59375 -0.203125 C 2.164062 -0.378906 1.796875 -0.628906 1.484375 -0.953125 C 1.160156 -1.265625 0.910156 -1.632812 0.734375 -2.0625 C 0.546875 -2.488281 0.453125 -2.941406 0.453125 -3.421875 C 0.453125 -3.898438 0.546875 -4.351562 0.734375 -4.78125 C 0.910156 -5.207031 1.160156 -5.578125 1.484375 -5.890625 C 1.796875 -6.203125 2.164062 -6.453125 2.59375 -6.640625 C 3.007812 -6.816406 3.457031 -6.90625 3.9375 -6.90625 C 4.414062 -6.90625 4.867188 -6.816406 5.296875 -6.640625 C 5.722656 -6.453125 6.097656 -6.203125 6.421875 -5.890625 C 6.734375 -5.578125 6.984375 -5.207031 7.171875 -4.78125 C 7.347656 -4.351562 7.4375 -3.898438 7.4375 -3.421875 Z M 7.4375 -3.421875 "/></g></g></g><g fill="#000000" fill-opacity="1"><g transform="translate(107.810768, 251.528187)"><g><path d="M 4.796875 -6.15625 L 1.453125 -6.15625 L 1.453125 -3.734375 L 4.6875 -3.734375 L 4.6875 -3.0625 L 1.453125 -3.0625 L 1.453125 0 L 0.75 0 L 0.75 -6.796875 L 4.796875 -6.796875 Z M 4.796875 -6.15625 "/></g></g></g><g fill="#000000" fill-opacity="1"><g transform="translate(120.478771, 251.528187)"><g><path d="M 0.203125 -6.171875 L 0.203125 -6.8125 L 4.203125 -6.8125 L 4.203125 -6.171875 L 2.546875 -6.171875 L 2.546875 -0.015625 L 1.84375 -0.015625 L 1.84375 -6.171875 Z M 0.203125 -6.171875 "/></g></g></g><g fill="#000000" fill-opacity="1"><g transform="translate(132.557002, 251.528187)"><g><path d="M 6.15625 0.546875 L 3.921875 -5.375 L 1.6875 0.546875 L 0.09375 -6.796875 L 0.8125 -6.796875 L 1.875 -1.859375 L 3.921875 -7.203125 L 5.953125 -1.859375 L 7.015625 -6.796875 L 7.734375 -6.796875 Z M 6.15625 0.546875 "/></g></g></g><g fill="#000000" fill-opacity="1"><g transform="translate(147.633985, 251.528187)"><g><path d="M 1.84375 -2.5 L 4.3125 -2.5 L 3.09375 -5.625 Z M 6.0625 0 L 5.3125 0 L 4.578125 -1.84375 L 1.59375 -1.84375 L 0.859375 0 L 0.09375 0 L 3.09375 -7.265625 Z M 6.0625 0 "/></g></g></g><g fill="#000000" fill-opacity="1"><g transform="translate(161.481519, 251.528187)"><g><path d="M 1.453125 -3.359375 L 3.03125 -3.359375 C 3.425781 -3.359375 3.75 -3.492188 4 -3.765625 C 4.257812 -4.035156 4.390625 -4.367188 4.390625 -4.765625 C 4.390625 -5.160156 4.265625 -5.488281 4.015625 -5.75 C 3.773438 -6 3.445312 -6.125 3.03125 -6.125 L 1.453125 -6.125 Z M 5.09375 -4.75 C 5.09375 -4.15625 4.878906 -3.660156 4.453125 -3.265625 C 4.085938 -2.921875 3.640625 -2.734375 3.109375 -2.703125 L 5.203125 0 L 4.265625 0 L 2.265625 -2.6875 L 1.453125 -2.6875 L 1.453125 0 L 0.75 0 L 0.75 -6.796875 L 2.9375 -6.796875 C 3.539062 -6.796875 4.046875 -6.609375 4.453125 -6.234375 C 4.878906 -5.828125 5.09375 -5.332031 5.09375 -4.75 Z M 5.09375 -4.75 "/></g></g></g><g fill="#000000" fill-opacity="1"><g transform="translate(174.599342, 251.528187)"><g><path d="M 4.796875 0 L 0.75 0 L 0.75 -6.796875 L 4.796875 -6.796875 L 4.796875 -6.15625 L 1.453125 -6.15625 L 1.453125 -3.734375 L 4.6875 -3.734375 L 4.6875 -3.0625 L 1.453125 -3.0625 L 1.453125 -0.65625 L 4.796875 -0.65625 Z M 4.796875 0 "/></g></g></g><g fill="#000000" fill-opacity="1"><g transform="translate(187.81713, 251.528187)"><g/></g></g><g fill="#000000" fill-opacity="1"><g transform="translate(198.196039, 251.528187)"><g><path d="M 4.796875 0 L 0.75 0 L 0.75 -6.796875 L 4.796875 -6.796875 L 4.796875 -6.15625 L 1.453125 -6.15625 L 1.453125 -3.734375 L 4.6875 -3.734375 L 4.6875 -3.0625 L 1.453125 -3.0625 L 1.453125 -0.65625 L 4.796875 -0.65625 Z M 4.796875 0 "/></g></g></g><g fill="#000000" fill-opacity="1"><g transform="translate(211.413827, 251.528187)"><g><path d="M 1.453125 -5.015625 L 1.453125 0 L 0.75 0 L 0.75 -7.234375 L 4.5625 -1.796875 L 4.5625 -6.796875 L 5.265625 -6.796875 L 5.265625 0.421875 Z M 1.453125 -5.015625 "/></g></g></g><g fill="#000000" fill-opacity="1"><g transform="translate(225.11142, 251.528187)"><g><path d="M 7.453125 -3.1875 L 7.390625 -2.765625 C 7.242188 -1.929688 6.84375 -1.25 6.1875 -0.71875 C 5.519531 -0.1875 4.773438 0.078125 3.953125 0.078125 C 3.472656 0.078125 3.019531 -0.015625 2.59375 -0.203125 C 2.164062 -0.378906 1.796875 -0.628906 1.484375 -0.953125 C 1.160156 -1.265625 0.910156 -1.632812 0.734375 -2.0625 C 0.546875 -2.488281 0.453125 -2.945312 0.453125 -3.4375 C 0.453125 -3.914062 0.546875 -4.367188 0.734375 -4.796875 C 0.910156 -5.222656 1.160156 -5.59375 1.484375 -5.90625 C 1.796875 -6.21875 2.164062 -6.46875 2.59375 -6.65625 C 3.019531 -6.84375 3.445312 -6.9375 3.875 -6.9375 C 4.6875 -6.9375 5.40625 -6.703125 6.03125 -6.234375 C 6.65625 -5.773438 7.082031 -5.171875 7.3125 -4.421875 L 6.5625 -4.421875 C 6.351562 -4.972656 6.015625 -5.410156 5.546875 -5.734375 C 5.054688 -6.066406 4.523438 -6.234375 3.953125 -6.234375 C 3.179688 -6.234375 2.519531 -5.957031 1.96875 -5.40625 C 1.425781 -4.863281 1.15625 -4.207031 1.15625 -3.4375 C 1.15625 -2.664062 1.425781 -2.003906 1.96875 -1.453125 C 2.507812 -0.898438 3.171875 -0.625 3.953125 -0.625 C 4.566406 -0.625 5.125 -0.800781 5.625 -1.15625 C 6.125 -1.507812 6.476562 -1.976562 6.6875 -2.5625 L 3.921875 -2.5625 L 3.921875 -3.1875 Z M 7.453125 -3.1875 "/></g></g></g><g fill="#000000" fill-opacity="1"><g transform="translate(240.698272, 251.528187)"><g><path d="M 1.453125 0 L 0.75 0 L 0.75 -6.796875 L 1.453125 -6.796875 Z M 1.453125 0 "/></g></g></g><g fill="#000000" fill-opacity="1"><g transform="translate(250.577372, 251.528187)"><g><path d="M 1.453125 -5.015625 L 1.453125 0 L 0.75 0 L 0.75 -7.234375 L 4.5625 -1.796875 L 4.5625 -6.796875 L 5.265625 -6.796875 L 5.265625 0.421875 Z M 1.453125 -5.015625 "/></g></g></g><g fill="#000000" fill-opacity="1"><g transform="translate(264.274965, 251.528187)"><g><path d="M 4.796875 0 L 0.75 0 L 0.75 -6.796875 L 4.796875 -6.796875 L 4.796875 -6.15625 L 1.453125 -6.15625 L 1.453125 -3.734375 L 4.6875 -3.734375 L 4.6875 -3.0625 L 1.453125 -3.0625 L 1.453125 -0.65625 L 4.796875 -0.65625 Z M 4.796875 0 "/></g></g></g><g fill="#000000" fill-opacity="1"><g transform="translate(277.492741, 251.528187)"><g><path d="M 4.796875 0 L 0.75 0 L 0.75 -6.796875 L 4.796875 -6.796875 L 4.796875 -6.15625 L 1.453125 -6.15625 L 1.453125 -3.734375 L 4.6875 -3.734375 L 4.6875 -3.0625 L 1.453125 -3.0625 L 1.453125 -0.65625 L 4.796875 -0.65625 Z M 4.796875 0 "/></g></g></g><g fill="#000000" fill-opacity="1"><g transform="translate(290.710529, 251.528187)"><g><path d="M 1.453125 -3.359375 L 3.03125 -3.359375 C 3.425781 -3.359375 3.75 -3.492188 4 -3.765625 C 4.257812 -4.035156 4.390625 -4.367188 4.390625 -4.765625 C 4.390625 -5.160156 4.265625 -5.488281 4.015625 -5.75 C 3.773438 -6 3.445312 -6.125 3.03125 -6.125 L 1.453125 -6.125 Z M 5.09375 -4.75 C 5.09375 -4.15625 4.878906 -3.660156 4.453125 -3.265625 C 4.085938 -2.921875 3.640625 -2.734375 3.109375 -2.703125 L 5.203125 0 L 4.265625 0 L 2.265625 -2.6875 L 1.453125 -2.6875 L 1.453125 0 L 0.75 0 L 0.75 -6.796875 L 2.9375 -6.796875 C 3.539062 -6.796875 4.046875 -6.609375 4.453125 -6.234375 C 4.878906 -5.828125 5.09375 -5.332031 5.09375 -4.75 Z M 5.09375 -4.75 "/></g></g></g><g fill="#000000" fill-opacity="1"><g transform="translate(86.400274, 171.005818)"><g><path d="M 37.8125 -13.625 C 37.769531 -13.613281 37.734375 -13.609375 37.703125 -13.609375 C 37.648438 -13.585938 37.625 -13.566406 37.625 -13.546875 C 37.101562 -11.441406 36.628906 -9.304688 36.203125 -7.140625 C 35.960938 -5.898438 35.710938 -4.671875 35.453125 -3.453125 C 34.660156 0.160156 33.5625 3.679688 32.15625 7.109375 C 31.832031 7.890625 31.460938 8.640625 31.046875 9.359375 C 30.773438 9.847656 30.4375 10.289062 30.03125 10.6875 C 29.332031 11.320312 28.585938 11.570312 27.796875 11.4375 C 27.003906 11.3125 26.367188 10.835938 25.890625 10.015625 C 25.554688 9.347656 25.34375 8.632812 25.25 7.875 C 25.0625 6.53125 24.96875 5.1875 24.96875 3.84375 C 24.96875 2.507812 25.023438 1.160156 25.140625 -0.203125 C 25.484375 -4.304688 25.894531 -8.40625 26.375 -12.5 C 26.476562 -13.457031 26.582031 -14.410156 26.6875 -15.359375 C 27.070312 -18.535156 27.363281 -21.710938 27.5625 -24.890625 C 27.632812 -26.347656 27.566406 -27.796875 27.359375 -29.234375 C 27.078125 -30.953125 26.390625 -32.128906 25.296875 -32.765625 C 24.210938 -33.410156 22.859375 -33.613281 21.234375 -33.375 C 19.609375 -33.132812 17.863281 -32.554688 16 -31.640625 C 14.132812 -30.722656 12.296875 -29.566406 10.484375 -28.171875 C 8.671875 -26.785156 7.035156 -25.253906 5.578125 -23.578125 C 4.117188 -21.898438 2.96875 -20.191406 2.125 -18.453125 C 1.28125 -16.710938 0.898438 -15.035156 0.984375 -13.421875 C 1.085938 -11.910156 1.65625 -10.613281 2.6875 -9.53125 C 3.664062 -8.5 4.742188 -7.703125 5.921875 -7.140625 C 7.097656 -6.585938 8.410156 -6.316406 9.859375 -6.328125 C 10.046875 -6.347656 10.21875 -6.335938 10.375 -6.296875 C 10.53125 -6.253906 10.648438 -6.132812 10.734375 -5.9375 C 10.785156 -5.789062 10.734375 -5.644531 10.578125 -5.5 C 10.421875 -5.351562 10.21875 -5.265625 9.96875 -5.234375 C 9.5625 -5.171875 9.160156 -5.160156 8.765625 -5.203125 C 5.816406 -5.441406 3.296875 -6.609375 1.203125 -8.703125 C 0.265625 -9.640625 -0.367188 -10.671875 -0.703125 -11.796875 C -1.035156 -12.921875 -1.117188 -14.125 -0.953125 -15.40625 C -0.660156 -17.34375 0.101562 -19.273438 1.34375 -21.203125 C 2.582031 -23.128906 4.125 -24.941406 5.96875 -26.640625 C 7.820312 -28.347656 9.816406 -29.84375 11.953125 -31.125 C 14.097656 -32.40625 16.222656 -33.367188 18.328125 -34.015625 C 20.429688 -34.671875 22.359375 -34.914062 24.109375 -34.75 C 26.773438 -34.445312 28.492188 -33.007812 29.265625 -30.4375 C 29.585938 -29.226562 29.742188 -28 29.734375 -26.75 C 29.742188 -25.65625 29.707031 -24.5625 29.625 -23.46875 C 29.550781 -22.375 29.46875 -21.285156 29.375 -20.203125 C 29.351562 -20.148438 29.34375 -20.09375 29.34375 -20.03125 C 29.082031 -17.46875 28.796875 -14.894531 28.484375 -12.3125 C 28.109375 -9.082031 27.78125 -5.851562 27.5 -2.625 C 27.34375 -0.96875 27.226562 0.691406 27.15625 2.359375 C 27.082031 4.023438 27.140625 5.691406 27.328125 7.359375 C 27.398438 8.117188 27.597656 8.84375 27.921875 9.53125 C 28.109375 9.875 28.332031 9.878906 28.59375 9.546875 C 29.113281 8.878906 29.535156 8.148438 29.859375 7.359375 C 31.378906 3.816406 32.539062 0.164062 33.34375 -3.59375 C 34.082031 -6.988281 34.804688 -10.367188 35.515625 -13.734375 C 35.867188 -15.535156 36.234375 -17.332031 36.609375 -19.125 C 36.628906 -19.15625 36.640625 -19.179688 36.640625 -19.203125 C 36.703125 -19.609375 36.8125 -20.015625 36.96875 -20.421875 C 37.15625 -20.804688 37.4375 -21.066406 37.8125 -21.203125 C 38.1875 -21.335938 38.578125 -21.320312 38.984375 -21.15625 C 39.359375 -20.945312 39.566406 -20.628906 39.609375 -20.203125 C 39.628906 -20.015625 39.644531 -19.828125 39.65625 -19.640625 C 39.738281 -18.878906 39.796875 -18.125 39.828125 -17.375 C 39.890625 -15.84375 39.9375 -14.296875 39.96875 -12.734375 C 40 -10.828125 40.046875 -8.914062 40.109375 -7 C 40.179688 -5.09375 40.332031 -3.222656 40.5625 -1.390625 C 40.5625 -1.367188 40.5625 -1.351562 40.5625 -1.34375 C 40.59375 -0.800781 40.722656 -0.265625 40.953125 0.265625 C 41.148438 0.128906 41.289062 -0.0351562 41.375 -0.234375 C 41.46875 -0.429688 41.539062 -0.632812 41.59375 -0.84375 C 41.625 -0.945312 41.660156 -1.039062 41.703125 -1.125 C 42.421875 -3.363281 43.039062 -5.742188 43.5625 -8.265625 C 44.082031 -10.796875 44.554688 -13.316406 44.984375 -15.828125 C 45.285156 -17.578125 45.585938 -19.257812 45.890625 -20.875 C 46.316406 -23.019531 46.738281 -25.164062 47.15625 -27.3125 C 47.175781 -27.332031 47.1875 -27.363281 47.1875 -27.40625 C 47.207031 -27.519531 47.234375 -27.640625 47.265625 -27.765625 C 47.378906 -28.085938 47.59375 -28.300781 47.90625 -28.40625 C 48.21875 -28.519531 48.523438 -28.492188 48.828125 -28.328125 C 48.929688 -28.253906 48.992188 -28.15625 49.015625 -28.03125 C 49.046875 -27.914062 49.046875 -27.789062 49.015625 -27.65625 C 48.890625 -26.863281 48.769531 -26.0625 48.65625 -25.25 C 48.445312 -23.78125 48.210938 -22.320312 47.953125 -20.875 C 47.691406 -19.476562 47.425781 -18.023438 47.15625 -16.515625 C 46.695312 -13.765625 46.175781 -10.992188 45.59375 -8.203125 C 45.019531 -5.410156 44.320312 -2.820312 43.5 -0.4375 C 43.269531 0.289062 42.953125 0.972656 42.546875 1.609375 C 42.285156 2.054688 41.910156 2.363281 41.421875 2.53125 C 40.273438 2.863281 39.476562 2.46875 39.03125 1.34375 C 38.863281 0.875 38.734375 0.394531 38.640625 -0.09375 C 38.554688 -0.59375 38.492188 -1.09375 38.453125 -1.59375 C 38.273438 -3.019531 38.15625 -4.472656 38.09375 -5.953125 C 38.03125 -7.441406 37.984375 -8.925781 37.953125 -10.40625 C 37.941406 -11.195312 37.925781 -11.988281 37.90625 -12.78125 C 37.882812 -12.96875 37.867188 -13.15625 37.859375 -13.34375 C 37.835938 -13.445312 37.820312 -13.539062 37.8125 -13.625 Z M 37.8125 -13.625 "/></g></g></g><g fill="#000000" fill-opacity="1"><g transform="translate(135.009336, 171.005818)"><g><path d="M 8.53125 -5.875 C 8.632812 -5.820312 8.679688 -5.726562 8.671875 -5.59375 C 8.660156 -5.46875 8.625 -5.351562 8.5625 -5.25 C 8.03125 -4.457031 7.457031 -3.753906 6.84375 -3.140625 C 6.238281 -2.535156 5.566406 -2.082031 4.828125 -1.78125 C 4.097656 -1.488281 3.265625 -1.40625 2.328125 -1.53125 C 1.691406 -1.632812 1.210938 -1.847656 0.890625 -2.171875 C 0.566406 -2.503906 0.328125 -2.972656 0.171875 -3.578125 C -0.0859375 -4.523438 -0.144531 -5.5 0 -6.5 C 0.113281 -7.070312 0.472656 -7.367188 1.078125 -7.390625 C 1.617188 -7.390625 1.910156 -7.148438 1.953125 -6.671875 C 1.972656 -6.273438 1.972656 -5.878906 1.953125 -5.484375 C 1.953125 -5.429688 1.953125 -5.378906 1.953125 -5.328125 C 1.921875 -4.265625 2.09375 -3.535156 2.46875 -3.140625 C 2.851562 -2.742188 3.347656 -2.640625 3.953125 -2.828125 C 4.566406 -3.015625 5.21875 -3.441406 5.90625 -4.109375 C 5.988281 -4.203125 6.09375 -4.320312 6.21875 -4.46875 C 6.351562 -4.613281 6.5 -4.757812 6.65625 -4.90625 C 6.875 -5.132812 7.054688 -5.328125 7.203125 -5.484375 C 7.628906 -5.910156 8.070312 -6.039062 8.53125 -5.875 Z M 0.921875 -9.125 C 0.453125 -9.15625 0.179688 -9.410156 0.109375 -9.890625 C 0.0546875 -10.265625 0.113281 -10.625 0.28125 -10.96875 C 0.4375 -11.269531 0.691406 -11.472656 1.046875 -11.578125 C 1.398438 -11.691406 1.734375 -11.660156 2.046875 -11.484375 C 2.160156 -11.421875 2.242188 -11.332031 2.296875 -11.21875 C 2.347656 -11.101562 2.363281 -11.015625 2.34375 -10.953125 C 2.332031 -9.710938 1.859375 -9.101562 0.921875 -9.125 Z M 0.921875 -9.125 "/></g></g></g><g fill="#000000" fill-opacity="1"><g transform="translate(142.189428, 171.005818)"><g><path d="M 9.953125 -5.640625 C 10.296875 -5.960938 10.582031 -6.023438 10.8125 -5.828125 C 11.039062 -5.628906 11.039062 -5.257812 10.8125 -4.71875 C 10.269531 -3.664062 9.578125 -2.679688 8.734375 -1.765625 C 7.898438 -0.859375 6.945312 -0.1875 5.875 0.25 C 5.414062 0.394531 4.945312 0.46875 4.46875 0.46875 C 4 0.46875 3.535156 0.410156 3.078125 0.296875 C 2.617188 0.191406 2.238281 0 1.9375 -0.28125 C 1.632812 -0.570312 1.375 -0.90625 1.15625 -1.28125 C 0.5 -2.519531 0.0820312 -4.300781 -0.09375 -6.625 C -0.269531 -8.957031 -0.285156 -11.503906 -0.140625 -14.265625 C 0.00390625 -17.023438 0.234375 -19.664062 0.546875 -22.1875 C 0.859375 -24.71875 1.171875 -26.804688 1.484375 -28.453125 C 1.640625 -29.140625 1.875 -29.789062 2.1875 -30.40625 C 2.53125 -31.050781 3.0625 -31.347656 3.78125 -31.296875 C 4.457031 -31.296875 4.925781 -30.976562 5.1875 -30.34375 C 5.457031 -29.53125 5.613281 -28.703125 5.65625 -27.859375 C 5.78125 -25.867188 5.722656 -23.882812 5.484375 -21.90625 C 5.253906 -20 4.957031 -18.210938 4.59375 -16.546875 C 4.226562 -14.890625 3.847656 -13.265625 3.453125 -11.671875 C 2.953125 -9.722656 2.484375 -7.6875 2.046875 -5.5625 C 2.054688 -5.34375 2.078125 -5.144531 2.109375 -4.96875 C 2.160156 -4.363281 2.238281 -3.84375 2.34375 -3.40625 C 2.457031 -2.96875 2.703125 -2.429688 3.078125 -1.796875 C 3.421875 -1.191406 3.851562 -0.867188 4.375 -0.828125 C 4.894531 -0.796875 5.429688 -0.941406 5.984375 -1.265625 C 6.535156 -1.597656 7.039062 -1.992188 7.5 -2.453125 C 7.957031 -2.910156 8.316406 -3.328125 8.578125 -3.703125 C 8.648438 -3.804688 8.78125 -3.992188 8.96875 -4.265625 C 9.164062 -4.546875 9.359375 -4.816406 9.546875 -5.078125 C 9.734375 -5.347656 9.867188 -5.535156 9.953125 -5.640625 Z M 1.8125 -11.84375 C 2.03125 -12.414062 2.25 -13.332031 2.46875 -14.59375 C 2.695312 -15.851562 2.898438 -17.253906 3.078125 -18.796875 C 3.265625 -20.347656 3.40625 -21.828125 3.5 -23.234375 C 3.59375 -24.640625 3.625 -25.757812 3.59375 -26.59375 C 3.5625 -27.4375 3.453125 -27.789062 3.265625 -27.65625 C 2.992188 -26.46875 2.816406 -25.367188 2.734375 -24.359375 C 2.679688 -23.828125 2.601562 -23.035156 2.5 -21.984375 C 2.289062 -20.160156 2.097656 -18.222656 1.921875 -16.171875 C 1.753906 -14.117188 1.71875 -12.675781 1.8125 -11.84375 Z M 1.8125 -11.84375 "/></g></g></g><g fill="#000000" fill-opacity="1"><g transform="translate(151.969811, 171.005818)"><g><path d="M 14.75 -5.8125 C 14.882812 -5.75 14.929688 -5.625 14.890625 -5.4375 C 14.847656 -5.257812 14.765625 -5.078125 14.640625 -4.890625 C 14.523438 -4.710938 14.421875 -4.582031 14.328125 -4.5 C 13.554688 -3.726562 12.71875 -3.070312 11.8125 -2.53125 C 10.914062 -1.988281 9.925781 -1.59375 8.84375 -1.34375 C 8.3125 -1.195312 7.78125 -1.125 7.25 -1.125 C 6.726562 -1.125 6.273438 -1.273438 5.890625 -1.578125 C 5.503906 -1.878906 5.222656 -2.414062 5.046875 -3.1875 C 4.535156 -2.644531 4.078125 -2.070312 3.671875 -1.46875 C 3.273438 -0.863281 2.910156 -0.273438 2.578125 0.296875 C 2.546875 0.378906 2.503906 0.460938 2.453125 0.546875 C 2.367188 0.734375 2.265625 0.90625 2.140625 1.0625 C 1.953125 1.320312 1.726562 1.472656 1.46875 1.515625 C 1.207031 1.554688 0.941406 1.546875 0.671875 1.484375 C 0.203125 1.390625 -0.0351562 1.050781 -0.046875 0.46875 C -0.0664062 -1.175781 -0.0625 -2.828125 -0.03125 -4.484375 C -0.03125 -5.023438 -0.0195312 -5.566406 0 -6.109375 C 0.0195312 -7.398438 0.0546875 -8.675781 0.109375 -9.9375 C 0.109375 -10.21875 0.113281 -10.492188 0.125 -10.765625 C 0.195312 -13.484375 0.300781 -16.148438 0.4375 -18.765625 C 0.570312 -21.390625 0.796875 -24.066406 1.109375 -26.796875 C 1.160156 -27.316406 1.265625 -27.875 1.421875 -28.46875 C 1.578125 -29.0625 1.820312 -29.578125 2.15625 -30.015625 C 2.488281 -30.460938 2.945312 -30.71875 3.53125 -30.78125 C 4.320312 -30.8125 4.890625 -30.472656 5.234375 -29.765625 C 5.410156 -29.410156 5.539062 -29.046875 5.625 -28.671875 C 6.019531 -26.648438 6.128906 -24.609375 5.953125 -22.546875 C 5.734375 -19.921875 5.222656 -17.054688 4.421875 -13.953125 C 3.617188 -10.847656 2.804688 -7.988281 1.984375 -5.375 C 1.984375 -5.28125 1.984375 -5.179688 1.984375 -5.078125 C 1.960938 -4.429688 1.945312 -3.796875 1.9375 -3.171875 C 1.945312 -2.785156 2.054688 -2.632812 2.265625 -2.71875 C 2.472656 -2.800781 2.722656 -3 3.015625 -3.3125 C 3.359375 -3.65625 3.671875 -3.984375 3.953125 -4.296875 C 4.273438 -4.660156 4.609375 -5.015625 4.953125 -5.359375 C 5.296875 -5.710938 5.722656 -6.078125 6.234375 -6.453125 C 6.492188 -6.679688 6.804688 -6.832031 7.171875 -6.90625 C 7.460938 -6.9375 7.710938 -6.914062 7.921875 -6.84375 C 8.140625 -6.78125 8.285156 -6.671875 8.359375 -6.515625 C 8.398438 -6.328125 8.390625 -6.164062 8.328125 -6.03125 C 8.273438 -5.90625 8.191406 -5.78125 8.078125 -5.65625 C 8.054688 -5.625 8.035156 -5.601562 8.015625 -5.59375 C 7.773438 -5.289062 7.5625 -4.925781 7.375 -4.5 C 7.1875 -4.070312 7.097656 -3.660156 7.109375 -3.265625 C 7.179688 -2.859375 7.351562 -2.617188 7.625 -2.546875 C 7.90625 -2.472656 8.21875 -2.492188 8.5625 -2.609375 C 8.90625 -2.722656 9.195312 -2.835938 9.4375 -2.953125 C 10.632812 -3.503906 11.734375 -4.191406 12.734375 -5.015625 C 12.765625 -5.054688 12.8125 -5.09375 12.875 -5.125 C 13.0625 -5.3125 13.304688 -5.488281 13.609375 -5.65625 C 13.921875 -5.832031 14.300781 -5.882812 14.75 -5.8125 Z M 2.0625 -11.828125 C 2.050781 -11.492188 2.109375 -11.578125 2.234375 -12.078125 C 2.359375 -12.578125 2.515625 -13.351562 2.703125 -14.40625 C 2.890625 -15.46875 3.078125 -16.675781 3.265625 -18.03125 C 3.460938 -19.394531 3.613281 -20.769531 3.71875 -22.15625 C 3.832031 -23.550781 3.882812 -24.84375 3.875 -26.03125 C 3.875 -26.195312 3.859375 -26.410156 3.828125 -26.671875 C 3.796875 -26.929688 3.757812 -27.1875 3.71875 -27.4375 C 3.675781 -27.6875 3.625 -27.875 3.5625 -28 C 3.507812 -28.132812 3.453125 -28.140625 3.390625 -28.015625 C 3.335938 -27.890625 3.273438 -27.59375 3.203125 -27.125 C 2.941406 -25 2.695312 -22.453125 2.46875 -19.484375 C 2.25 -16.515625 2.113281 -13.960938 2.0625 -11.828125 Z M 2.0625 -11.828125 "/></g></g></g><g fill="#000000" fill-opacity="1"><g transform="translate(165.322662, 171.005818)"><g><path d="M 8.53125 -5.875 C 8.632812 -5.820312 8.679688 -5.726562 8.671875 -5.59375 C 8.660156 -5.46875 8.625 -5.351562 8.5625 -5.25 C 8.03125 -4.457031 7.457031 -3.753906 6.84375 -3.140625 C 6.238281 -2.535156 5.566406 -2.082031 4.828125 -1.78125 C 4.097656 -1.488281 3.265625 -1.40625 2.328125 -1.53125 C 1.691406 -1.632812 1.210938 -1.847656 0.890625 -2.171875 C 0.566406 -2.503906 0.328125 -2.972656 0.171875 -3.578125 C -0.0859375 -4.523438 -0.144531 -5.5 0 -6.5 C 0.113281 -7.070312 0.472656 -7.367188 1.078125 -7.390625 C 1.617188 -7.390625 1.910156 -7.148438 1.953125 -6.671875 C 1.972656 -6.273438 1.972656 -5.878906 1.953125 -5.484375 C 1.953125 -5.429688 1.953125 -5.378906 1.953125 -5.328125 C 1.921875 -4.265625 2.09375 -3.535156 2.46875 -3.140625 C 2.851562 -2.742188 3.347656 -2.640625 3.953125 -2.828125 C 4.566406 -3.015625 5.21875 -3.441406 5.90625 -4.109375 C 5.988281 -4.203125 6.09375 -4.320312 6.21875 -4.46875 C 6.351562 -4.613281 6.5 -4.757812 6.65625 -4.90625 C 6.875 -5.132812 7.054688 -5.328125 7.203125 -5.484375 C 7.628906 -5.910156 8.070312 -6.039062 8.53125 -5.875 Z M 0.921875 -9.125 C 0.453125 -9.15625 0.179688 -9.410156 0.109375 -9.890625 C 0.0546875 -10.265625 0.113281 -10.625 0.28125 -10.96875 C 0.4375 -11.269531 0.691406 -11.472656 1.046875 -11.578125 C 1.398438 -11.691406 1.734375 -11.660156 2.046875 -11.484375 C 2.160156 -11.421875 2.242188 -11.332031 2.296875 -11.21875 C 2.347656 -11.101562 2.363281 -11.015625 2.34375 -10.953125 C 2.332031 -9.710938 1.859375 -9.101562 0.921875 -9.125 Z M 0.921875 -9.125 "/></g></g></g><g fill="#000000" fill-opacity="1"><g transform="translate(172.502753, 171.005818)"><g><path d="M 15.46875 -5.515625 C 15.46875 -5.515625 15.476562 -5.515625 15.5 -5.515625 C 15.582031 -5.492188 15.664062 -5.460938 15.75 -5.421875 C 15.832031 -5.378906 15.890625 -5.296875 15.921875 -5.171875 C 15.960938 -4.953125 15.898438 -4.78125 15.734375 -4.65625 C 15.023438 -4.164062 14.269531 -3.78125 13.46875 -3.5 C 12.738281 -3.257812 12.003906 -3.109375 11.265625 -3.046875 C 10.523438 -2.984375 9.78125 -2.988281 9.03125 -3.0625 C 8.050781 -3.164062 7.257812 -3.628906 6.65625 -4.453125 C 6.46875 -4.710938 6.273438 -4.972656 6.078125 -5.234375 C 5.890625 -5.484375 5.695312 -5.75 5.5 -6.03125 C 5.320312 -6.25 5.109375 -6.273438 4.859375 -6.109375 C 4.546875 -5.878906 4.265625 -5.617188 4.015625 -5.328125 C 3.765625 -5.046875 3.53125 -4.753906 3.3125 -4.453125 C 3.289062 -4.410156 3.269531 -4.375 3.25 -4.34375 C 3.164062 -4.25 3.078125 -4.140625 2.984375 -4.015625 C 2.890625 -3.828125 2.773438 -3.65625 2.640625 -3.5 C 2.410156 -3.238281 2.113281 -3.070312 1.75 -3 C 1.394531 -2.925781 1.054688 -2.953125 0.734375 -3.078125 C 0.484375 -3.203125 0.328125 -3.382812 0.265625 -3.625 C 0.0351562 -4.507812 -0.101562 -5.394531 -0.15625 -6.28125 C -0.15625 -6.769531 0.0664062 -7.054688 0.515625 -7.140625 C 1.035156 -7.253906 1.40625 -7.085938 1.625 -6.640625 C 1.65625 -6.578125 1.679688 -6.492188 1.703125 -6.390625 C 1.722656 -6.285156 1.753906 -6.179688 1.796875 -6.078125 C 1.835938 -5.984375 1.921875 -5.90625 2.046875 -5.84375 C 2.179688 -5.96875 2.304688 -6.078125 2.421875 -6.171875 C 2.703125 -6.421875 2.96875 -6.65625 3.21875 -6.875 C 3.53125 -7.132812 3.859375 -7.316406 4.203125 -7.421875 C 4.546875 -7.535156 4.914062 -7.59375 5.3125 -7.59375 C 6.226562 -7.59375 6.953125 -7.234375 7.484375 -6.515625 C 7.578125 -6.359375 7.679688 -6.210938 7.796875 -6.078125 C 8.023438 -5.710938 8.269531 -5.367188 8.53125 -5.046875 C 8.945312 -4.515625 9.5 -4.238281 10.1875 -4.21875 C 10.882812 -4.1875 11.554688 -4.25 12.203125 -4.40625 C 12.847656 -4.570312 13.472656 -4.816406 14.078125 -5.140625 C 14.097656 -5.160156 14.125 -5.179688 14.15625 -5.203125 C 14.363281 -5.316406 14.570312 -5.410156 14.78125 -5.484375 C 15 -5.554688 15.226562 -5.566406 15.46875 -5.515625 Z M 15.46875 -5.515625 "/></g></g></g><g fill="#000000" fill-opacity="1"><g transform="translate(186.958861, 171.005818)"><g/></g></g><g fill="#000000" fill-opacity="1"><g transform="translate(196.223871, 171.005818)"><g/></g></g><g fill="#000000" fill-opacity="1"><g transform="translate(205.497922, 171.005818)"><g><path d="M 27.765625 0.703125 C 27.972656 0.328125 28.125 -0.0390625 28.21875 -0.40625 C 28.3125 -0.769531 28.382812 -1.125 28.4375 -1.46875 C 28.46875 -1.664062 28.5 -1.867188 28.53125 -2.078125 C 29.445312 -6.367188 30.507812 -10.617188 31.71875 -14.828125 C 32.9375 -19.046875 34.359375 -23.203125 35.984375 -27.296875 C 36.046875 -27.398438 36.097656 -27.515625 36.140625 -27.640625 C 36.210938 -27.835938 36.300781 -28.039062 36.40625 -28.25 C 36.613281 -28.695312 36.96875 -28.929688 37.46875 -28.953125 C 38.101562 -28.953125 38.328125 -28.628906 38.140625 -27.984375 C 35.078125 -19.804688 32.632812 -11.445312 30.8125 -2.90625 C 30.15625 0.257812 29.550781 3.429688 29 6.609375 C 28.757812 7.953125 28.507812 9.289062 28.25 10.625 C 28.132812 11.332031 28.015625 12.050781 27.890625 12.78125 C 27.804688 13.238281 27.722656 13.703125 27.640625 14.171875 C 27.609375 14.359375 27.5625 14.546875 27.5 14.734375 C 27.375 15.109375 27.125 15.351562 26.75 15.46875 C 26.375 15.582031 26.015625 15.523438 25.671875 15.296875 C 25.453125 15.148438 25.332031 14.9375 25.3125 14.65625 C 25.300781 14.257812 25.300781 13.863281 25.3125 13.46875 C 25.550781 7.78125 25.671875 2.09375 25.671875 -3.59375 C 25.671875 -4.195312 25.671875 -4.835938 25.671875 -5.515625 C 25.691406 -7.285156 25.6875 -9.1875 25.65625 -11.21875 C 25.632812 -13.257812 25.539062 -15.3125 25.375 -17.375 C 25.21875 -19.445312 24.941406 -21.421875 24.546875 -23.296875 C 24.148438 -25.171875 23.585938 -26.8125 22.859375 -28.21875 C 22.515625 -28.894531 22.109375 -29.515625 21.640625 -30.078125 C 20.648438 -31.171875 19.410156 -31.660156 17.921875 -31.546875 C 16.429688 -31.429688 14.832031 -30.859375 13.125 -29.828125 C 11.425781 -28.796875 9.757812 -27.445312 8.125 -25.78125 C 6.488281 -24.113281 5.039062 -22.269531 3.78125 -20.25 C 2.53125 -18.238281 1.609375 -16.195312 1.015625 -14.125 C 0.421875 -12.0625 0.300781 -10.101562 0.65625 -8.25 C 1.019531 -6.40625 2.015625 -4.8125 3.640625 -3.46875 C 4.648438 -2.625 5.738281 -1.941406 6.90625 -1.421875 C 8.070312 -0.898438 9.328125 -0.601562 10.671875 -0.53125 C 10.929688 -0.507812 11.171875 -0.441406 11.390625 -0.328125 C 11.441406 -0.285156 11.488281 -0.234375 11.53125 -0.171875 C 11.582031 -0.109375 11.609375 -0.046875 11.609375 0.015625 C 11.609375 0.0859375 11.582031 0.15625 11.53125 0.21875 C 11.488281 0.28125 11.441406 0.332031 11.390625 0.375 C 11.222656 0.476562 11.035156 0.535156 10.828125 0.546875 C 10.085938 0.640625 9.34375 0.609375 8.59375 0.453125 C 6.570312 0.00390625 4.710938 -0.8125 3.015625 -2 C 1.117188 -3.34375 -0.15625 -4.925781 -0.8125 -6.75 C -1.476562 -8.582031 -1.644531 -10.535156 -1.3125 -12.609375 C -0.988281 -14.679688 -0.289062 -16.75 0.78125 -18.8125 C 1.863281 -20.875 3.179688 -22.820312 4.734375 -24.65625 C 6.285156 -26.488281 7.96875 -28.070312 9.78125 -29.40625 C 11.59375 -30.75 13.394531 -31.726562 15.1875 -32.34375 C 16.988281 -32.957031 18.664062 -33.09375 20.21875 -32.75 C 21.78125 -32.40625 23.082031 -31.453125 24.125 -29.890625 C 24.882812 -28.734375 25.476562 -27.484375 25.90625 -26.140625 C 26.582031 -23.984375 27.054688 -21.613281 27.328125 -19.03125 C 27.597656 -16.457031 27.753906 -13.828125 27.796875 -11.140625 C 27.847656 -8.453125 27.847656 -5.84375 27.796875 -3.3125 C 27.773438 -1.90625 27.765625 -0.566406 27.765625 0.703125 Z M 27.765625 0.703125 "/></g></g></g><g fill="#000000" fill-opacity="1"><g transform="translate(239.981074, 171.005818)"><g><path d="M 10.734375 -5.890625 C 10.816406 -5.878906 10.875 -5.851562 10.90625 -5.8125 C 10.9375 -5.78125 10.972656 -5.710938 11.015625 -5.609375 C 11.046875 -5.515625 11.007812 -5.394531 10.90625 -5.25 C 10.8125 -5.113281 10.71875 -5 10.625 -4.90625 C 9.988281 -4.3125 9.238281 -3.953125 8.375 -3.828125 C 7.882812 -3.765625 7.394531 -3.75 6.90625 -3.78125 C 6.414062 -3.8125 5.929688 -3.929688 5.453125 -4.140625 C 5.109375 -4.304688 4.785156 -4.253906 4.484375 -3.984375 C 3.867188 -3.421875 3.226562 -2.882812 2.5625 -2.375 C 2.21875 -2.113281 1.851562 -1.894531 1.46875 -1.71875 C 1.09375 -1.550781 0.679688 -1.457031 0.234375 -1.4375 C -1.066406 -1.457031 -1.582031 -2.09375 -1.3125 -3.34375 C -1.300781 -3.394531 -1.28125 -3.4375 -1.25 -3.46875 C -0.875 -4.488281 -0.378906 -5.40625 0.234375 -6.21875 C 0.847656 -7.03125 1.628906 -7.710938 2.578125 -8.265625 C 3.203125 -8.628906 3.875 -8.769531 4.59375 -8.6875 C 4.78125 -8.644531 4.960938 -8.570312 5.140625 -8.46875 C 5.347656 -8.375 5.429688 -8.210938 5.390625 -7.984375 C 5.378906 -7.910156 5.347656 -7.847656 5.296875 -7.796875 C 5.242188 -7.742188 5.191406 -7.695312 5.140625 -7.65625 C 5.109375 -7.613281 5.066406 -7.582031 5.015625 -7.5625 C 4.960938 -7.550781 4.910156 -7.546875 4.859375 -7.546875 C 4.335938 -7.535156 3.890625 -7.382812 3.515625 -7.09375 C 3.148438 -6.8125 2.816406 -6.488281 2.515625 -6.125 C 2.171875 -5.75 1.847656 -5.328125 1.546875 -4.859375 C 1.253906 -4.398438 1.015625 -3.851562 0.828125 -3.21875 C 1.515625 -3.613281 2.054688 -4.003906 2.453125 -4.390625 C 2.535156 -4.484375 2.617188 -4.5625 2.703125 -4.625 C 2.773438 -4.695312 2.847656 -4.757812 2.921875 -4.8125 C 3.265625 -5.132812 3.625 -5.414062 4 -5.65625 C 4.425781 -5.90625 4.847656 -6.03125 5.265625 -6.03125 C 5.691406 -6.03125 6.101562 -5.859375 6.5 -5.515625 C 7.050781 -5.023438 7.582031 -4.832031 8.09375 -4.9375 C 8.613281 -5.039062 9.097656 -5.222656 9.546875 -5.484375 C 9.992188 -5.753906 10.390625 -5.890625 10.734375 -5.890625 Z M 5.1875 -13.328125 C 5.28125 -13.460938 5.394531 -13.546875 5.53125 -13.578125 C 5.675781 -13.609375 5.828125 -13.617188 5.984375 -13.609375 C 6.015625 -13.609375 6.039062 -13.609375 6.0625 -13.609375 C 6.132812 -13.585938 6.203125 -13.578125 6.265625 -13.578125 C 6.628906 -13.492188 6.832031 -13.375 6.875 -13.21875 C 6.914062 -13.0625 6.867188 -12.894531 6.734375 -12.71875 C 6.609375 -12.550781 6.46875 -12.398438 6.3125 -12.265625 C 5.957031 -11.867188 5.609375 -11.414062 5.265625 -10.90625 C 4.960938 -10.46875 4.691406 -10.125 4.453125 -9.875 C 4.222656 -9.625 4.046875 -9.59375 3.921875 -9.78125 C 3.785156 -9.882812 3.710938 -10.003906 3.703125 -10.140625 C 3.691406 -10.285156 3.71875 -10.429688 3.78125 -10.578125 C 3.875 -11.035156 4.03125 -11.457031 4.25 -11.84375 C 4.46875 -12.226562 4.703125 -12.609375 4.953125 -12.984375 C 5.023438 -13.097656 5.101562 -13.210938 5.1875 -13.328125 Z M 5.1875 -13.328125 "/></g></g></g><g fill="#000000" fill-opacity="1"><g transform="translate(249.902014, 171.005818)"><g><path d="M 10.34375 -5.875 C 10.632812 -5.820312 10.796875 -5.660156 10.828125 -5.390625 C 10.859375 -5.128906 10.722656 -4.859375 10.421875 -4.578125 C 10.117188 -4.328125 9.832031 -4.085938 9.5625 -3.859375 C 8.875 -3.296875 8.132812 -2.691406 7.34375 -2.046875 C 6.726562 -1.546875 6.164062 -1 5.65625 -0.40625 C 5.269531 0.0078125 4.984375 0.472656 4.796875 0.984375 C 4.585938 1.660156 4.242188 2.265625 3.765625 2.796875 C 3.492188 3.109375 3.179688 3.296875 2.828125 3.359375 C 2.472656 3.429688 2.101562 3.414062 1.71875 3.3125 C 1.53125 3.257812 1.390625 3.160156 1.296875 3.015625 C 1.203125 2.867188 1.1875 2.703125 1.25 2.515625 C 1.3125 2.222656 1.421875 1.945312 1.578125 1.6875 C 1.796875 1.363281 2.035156 1.046875 2.296875 0.734375 C 2.316406 0.703125 2.34375 0.671875 2.375 0.640625 C 3.269531 -0.484375 3.320312 -1.628906 2.53125 -2.796875 C 2.332031 -3.054688 2.117188 -3.304688 1.890625 -3.546875 C 1.816406 -3.640625 1.738281 -3.726562 1.65625 -3.8125 C 1.507812 -3.976562 1.359375 -4.140625 1.203125 -4.296875 C 0.921875 -4.609375 0.640625 -4.9375 0.359375 -5.28125 C -0.410156 -6.363281 -0.359375 -7.398438 0.515625 -8.390625 C 1.273438 -9.285156 2.222656 -9.90625 3.359375 -10.25 C 4.054688 -10.457031 4.734375 -10.394531 5.390625 -10.0625 C 6.023438 -9.71875 6.316406 -9.1875 6.265625 -8.46875 C 6.203125 -7.988281 5.960938 -7.707031 5.546875 -7.625 C 5.015625 -7.519531 4.632812 -7.679688 4.40625 -8.109375 C 4.332031 -8.285156 4.28125 -8.4375 4.25 -8.5625 C 4.21875 -8.6875 4.175781 -8.785156 4.125 -8.859375 C 4.070312 -8.929688 3.984375 -8.953125 3.859375 -8.921875 C 3.742188 -8.898438 3.5625 -8.8125 3.3125 -8.65625 C 2.90625 -8.414062 2.5625 -8.101562 2.28125 -7.71875 C 1.8125 -7.15625 1.78125 -6.554688 2.1875 -5.921875 C 2.332031 -5.710938 2.488281 -5.523438 2.65625 -5.359375 C 2.84375 -5.148438 3.023438 -4.941406 3.203125 -4.734375 C 3.546875 -4.390625 3.867188 -4.035156 4.171875 -3.671875 C 4.484375 -3.316406 4.753906 -2.929688 4.984375 -2.515625 C 5.148438 -2.546875 5.445312 -2.707031 5.875 -3 C 6.3125 -3.300781 6.78125 -3.644531 7.28125 -4.03125 C 7.789062 -4.414062 8.25 -4.765625 8.65625 -5.078125 C 9 -5.347656 9.242188 -5.535156 9.390625 -5.640625 C 9.503906 -5.722656 9.644531 -5.785156 9.8125 -5.828125 C 9.988281 -5.867188 10.164062 -5.882812 10.34375 -5.875 Z M 10.34375 -5.875 "/></g></g></g><g fill="#000000" fill-opacity="1"><g transform="translate(259.143598, 171.005818)"><g><path d="M 11.5625 -5.796875 C 11.65625 -5.722656 11.707031 -5.617188 11.71875 -5.484375 C 11.726562 -5.347656 11.691406 -5.203125 11.609375 -5.046875 C 11.535156 -4.910156 11.4375 -4.773438 11.3125 -4.640625 C 11.195312 -4.515625 11.085938 -4.398438 10.984375 -4.296875 C 10.878906 -4.210938 10.773438 -4.128906 10.671875 -4.046875 C 9.765625 -3.179688 8.828125 -2.335938 7.859375 -1.515625 C 7.585938 -1.273438 7.394531 -1.082031 7.28125 -0.9375 C 7.164062 -0.800781 7.117188 -0.65625 7.140625 -0.5 C 7.160156 -0.34375 7.226562 -0.117188 7.34375 0.171875 C 7.34375 0.179688 7.351562 0.207031 7.375 0.25 C 8.375 2.957031 9.113281 5.738281 9.59375 8.59375 C 9.96875 10.863281 10.125 13.148438 10.0625 15.453125 C 10.03125 16.203125 9.898438 16.9375 9.671875 17.65625 C 9.554688 17.96875 9.394531 18.238281 9.1875 18.46875 C 8.976562 18.695312 8.691406 18.832031 8.328125 18.875 C 7.921875 18.9375 7.546875 18.910156 7.203125 18.796875 C 6.867188 18.691406 6.582031 18.46875 6.34375 18.125 C 6.125 17.8125 5.9375 17.46875 5.78125 17.09375 C 5.394531 16.238281 5.101562 15.363281 4.90625 14.46875 C 4.71875 13.582031 4.550781 12.675781 4.40625 11.75 C 3.957031 9 3.726562 6.21875 3.71875 3.40625 C 3.71875 2.363281 3.734375 1.316406 3.765625 0.265625 C 3.804688 -0.210938 3.828125 -0.703125 3.828125 -1.203125 C 3.859375 -1.921875 3.804688 -2.316406 3.671875 -2.390625 C 3.546875 -2.460938 3.3125 -2.347656 2.96875 -2.046875 C 2.789062 -1.929688 2.578125 -1.796875 2.328125 -1.640625 C 1.546875 -1.140625 0.691406 -0.914062 -0.234375 -0.96875 C -1.285156 -1.039062 -1.738281 -1.609375 -1.59375 -2.671875 C -1.5625 -3.015625 -1.476562 -3.351562 -1.34375 -3.6875 C -0.601562 -5.363281 0.539062 -6.707031 2.09375 -7.71875 C 2.6875 -8.101562 3.347656 -8.304688 4.078125 -8.328125 C 4.441406 -8.359375 4.765625 -8.265625 5.046875 -8.046875 C 5.222656 -7.867188 5.265625 -7.695312 5.171875 -7.53125 C 5.085938 -7.375 4.9375 -7.265625 4.71875 -7.203125 C 3.582031 -6.921875 2.703125 -6.390625 2.078125 -5.609375 C 1.453125 -4.835938 0.929688 -3.945312 0.515625 -2.9375 C 0.359375 -2.59375 0.363281 -2.4375 0.53125 -2.46875 C 0.707031 -2.5 0.972656 -2.648438 1.328125 -2.921875 C 1.679688 -3.203125 2.0625 -3.523438 2.46875 -3.890625 C 2.875 -4.265625 3.226562 -4.601562 3.53125 -4.90625 C 3.84375 -5.21875 4.050781 -5.425781 4.15625 -5.53125 C 4.394531 -5.789062 4.703125 -5.941406 5.078125 -5.984375 C 6.109375 -6.097656 6.550781 -5.628906 6.40625 -4.578125 C 6.40625 -4.578125 6.40625 -4.570312 6.40625 -4.5625 C 6.3125 -3.976562 6.234375 -3.390625 6.171875 -2.796875 C 6.171875 -2.628906 6.21875 -2.546875 6.3125 -2.546875 C 6.414062 -2.554688 6.53125 -2.609375 6.65625 -2.703125 C 6.789062 -2.796875 6.894531 -2.875 6.96875 -2.9375 C 6.976562 -2.945312 6.984375 -2.953125 6.984375 -2.953125 C 7.398438 -3.265625 7.816406 -3.570312 8.234375 -3.875 C 8.515625 -4.125 8.8125 -4.375 9.125 -4.625 C 9.40625 -4.851562 9.679688 -5.078125 9.953125 -5.296875 C 10.179688 -5.492188 10.441406 -5.648438 10.734375 -5.765625 C 11.023438 -5.878906 11.300781 -5.890625 11.5625 -5.796875 Z M 7.953125 13.65625 C 7.804688 10.0625 7.269531 6.523438 6.34375 3.046875 C 6.226562 2.660156 6.109375 2.421875 5.984375 2.328125 C 5.859375 2.242188 5.804688 2.425781 5.828125 2.875 C 5.835938 3.488281 5.859375 4.117188 5.890625 4.765625 C 5.898438 6.222656 6 7.671875 6.1875 9.109375 C 6.257812 9.578125 6.332031 10.039062 6.40625 10.5 C 6.570312 11.914062 6.816406 13.316406 7.140625 14.703125 C 7.273438 15.234375 7.394531 15.578125 7.5 15.734375 C 7.601562 15.890625 7.6875 15.910156 7.75 15.796875 C 7.8125 15.691406 7.859375 15.503906 7.890625 15.234375 C 7.929688 14.972656 7.953125 14.691406 7.953125 14.390625 C 7.960938 14.097656 7.960938 13.851562 7.953125 13.65625 Z M 7.953125 13.65625 "/></g></g></g><g fill="#000000" fill-opacity="1"><g transform="translate(269.369076, 171.005818)"><g><path d="M 14.703125 -5.921875 C 14.796875 -5.898438 14.863281 -5.863281 14.90625 -5.8125 C 14.957031 -5.769531 14.988281 -5.695312 15 -5.59375 C 15 -5.332031 14.757812 -5.035156 14.28125 -4.703125 C 13.8125 -4.367188 13.296875 -4.054688 12.734375 -3.765625 C 12.179688 -3.484375 11.789062 -3.304688 11.5625 -3.234375 C 10.757812 -2.929688 9.976562 -2.828125 9.21875 -2.921875 C 8.457031 -3.015625 7.789062 -3.410156 7.21875 -4.109375 C 6.863281 -4.609375 6.59375 -4.835938 6.40625 -4.796875 C 6.226562 -4.753906 6.007812 -4.535156 5.75 -4.140625 C 5.46875 -3.691406 5.015625 -3.160156 4.390625 -2.546875 C 3.671875 -2.015625 2.992188 -1.765625 2.359375 -1.796875 C 1.734375 -1.835938 1.203125 -2.082031 0.765625 -2.53125 C 0.335938 -2.988281 0.0625 -3.570312 -0.0625 -4.28125 C -0.195312 -5 -0.125 -5.757812 0.15625 -6.5625 C 0.382812 -7.207031 0.859375 -7.472656 1.578125 -7.359375 C 1.765625 -7.328125 1.910156 -7.242188 2.015625 -7.109375 C 2.128906 -6.984375 2.160156 -6.828125 2.109375 -6.640625 C 1.960938 -6.003906 1.90625 -5.367188 1.9375 -4.734375 C 1.914062 -4.316406 1.992188 -3.929688 2.171875 -3.578125 C 2.335938 -3.265625 2.570312 -3.210938 2.875 -3.421875 C 3.175781 -3.628906 3.476562 -3.925781 3.78125 -4.3125 C 4.082031 -4.707031 4.316406 -5.035156 4.484375 -5.296875 C 4.515625 -5.367188 4.550781 -5.429688 4.59375 -5.484375 C 4.65625 -5.566406 4.722656 -5.660156 4.796875 -5.765625 C 5.003906 -6.097656 5.226562 -6.40625 5.46875 -6.6875 C 5.875 -7.175781 6.398438 -7.382812 7.046875 -7.3125 C 7.585938 -7.28125 7.972656 -7.007812 8.203125 -6.5 C 8.648438 -5.351562 9.304688 -4.722656 10.171875 -4.609375 C 11.035156 -4.503906 11.976562 -4.773438 13 -5.421875 C 13.257812 -5.617188 13.523438 -5.769531 13.796875 -5.875 C 14.066406 -5.976562 14.367188 -5.992188 14.703125 -5.921875 Z M 14.703125 -5.921875 "/></g></g></g><g fill="#000000" fill-opacity="1"><g transform="translate(282.733646, 171.005818)"><g><path d="M 2.5 -4.578125 C 2.476562 -4.578125 2.460938 -4.578125 2.453125 -4.578125 C 2.453125 -4.578125 2.457031 -4.578125 2.46875 -4.578125 C 2.46875 -4.578125 2.476562 -4.578125 2.5 -4.578125 Z M 10.703125 -5.765625 C 10.785156 -5.816406 10.921875 -5.878906 11.109375 -5.953125 C 11.296875 -6.035156 11.472656 -6.082031 11.640625 -6.09375 C 11.816406 -6.101562 11.941406 -6.035156 12.015625 -5.890625 C 12.066406 -5.796875 12.078125 -5.703125 12.046875 -5.609375 C 12.023438 -5.515625 11.976562 -5.429688 11.90625 -5.359375 C 11.476562 -4.890625 10.8125 -4.414062 9.90625 -3.9375 C 9.007812 -3.457031 8.078125 -3.03125 7.109375 -2.65625 C 6.140625 -2.289062 5.332031 -2.054688 4.6875 -1.953125 C 3.957031 -1.816406 3.210938 -1.785156 2.453125 -1.859375 C 1.523438 -1.972656 0.832031 -2.351562 0.375 -3 C -0.0820312 -3.65625 -0.265625 -4.390625 -0.171875 -5.203125 C -0.0351562 -6.109375 0.375 -6.828125 1.0625 -7.359375 C 1.757812 -7.898438 2.554688 -8.097656 3.453125 -7.953125 C 4.003906 -7.890625 4.503906 -7.691406 4.953125 -7.359375 C 5.429688 -6.972656 5.644531 -6.523438 5.59375 -6.015625 C 5.539062 -5.503906 5.238281 -5.113281 4.6875 -4.84375 C 4.394531 -4.695312 4.070312 -4.609375 3.71875 -4.578125 C 3.375 -4.546875 2.96875 -4.546875 2.5 -4.578125 C 2.5 -4.578125 2.484375 -4.578125 2.453125 -4.578125 C 2.429688 -4.578125 2.394531 -4.578125 2.34375 -4.578125 C 2.300781 -4.578125 2.25 -4.578125 2.1875 -4.578125 C 2.050781 -4.578125 1.960938 -4.535156 1.921875 -4.453125 C 1.878906 -4.378906 1.875 -4.285156 1.90625 -4.171875 C 2.164062 -3.535156 2.671875 -3.195312 3.421875 -3.15625 C 4.179688 -3.125 5.039062 -3.265625 6 -3.578125 C 6.957031 -3.898438 7.863281 -4.269531 8.71875 -4.6875 C 9.582031 -5.113281 10.242188 -5.472656 10.703125 -5.765625 Z M 2.46875 -6.515625 C 2.351562 -6.429688 2.273438 -6.332031 2.234375 -6.21875 C 2.191406 -6.101562 2.164062 -6.003906 2.15625 -5.921875 C 2.144531 -5.847656 2.15625 -5.804688 2.1875 -5.796875 C 2.21875 -5.773438 2.316406 -5.75 2.484375 -5.71875 C 2.648438 -5.695312 2.832031 -5.695312 3.03125 -5.71875 C 3.226562 -5.738281 3.390625 -5.78125 3.515625 -5.84375 C 3.648438 -5.90625 3.695312 -6.023438 3.65625 -6.203125 C 3.570312 -6.441406 3.40625 -6.59375 3.15625 -6.65625 C 2.914062 -6.71875 2.6875 -6.671875 2.46875 -6.515625 Z M 2.46875 -6.515625 "/></g></g></g><g fill="#000000" fill-opacity="1"><g transform="translate(293.556483, 171.005818)"><g><path d="M 12.359375 -5.59375 C 12.390625 -5.539062 12.40625 -5.484375 12.40625 -5.421875 C 12.382812 -5.273438 12.316406 -5.160156 12.203125 -5.078125 C 12.054688 -4.953125 11.914062 -4.835938 11.78125 -4.734375 C 11.644531 -4.628906 11.507812 -4.53125 11.375 -4.4375 C 10.84375 -3.96875 10.3125 -3.5 9.78125 -3.03125 C 8.914062 -2.289062 8.054688 -1.554688 7.203125 -0.828125 C 6.972656 -0.628906 6.828125 -0.429688 6.765625 -0.234375 C 6.710938 -0.0351562 6.75 0.195312 6.875 0.46875 C 7.15625 1.019531 7.328125 1.59375 7.390625 2.1875 C 7.453125 2.78125 7.453125 3.378906 7.390625 3.984375 C 7.222656 5.503906 6.632812 6.796875 5.625 7.859375 C 4.625 8.921875 3.359375 9.5625 1.828125 9.78125 C 1.222656 9.875 0.640625 9.8125 0.078125 9.59375 C -0.898438 9.25 -1.320312 8.554688 -1.1875 7.515625 C -1.070312 6.773438 -0.8125 6.078125 -0.40625 5.421875 C 0.125 4.460938 0.738281 3.5625 1.4375 2.71875 C 1.539062 2.613281 1.632812 2.5 1.71875 2.375 C 2.363281 1.65625 2.992188 0.9375 3.609375 0.21875 C 3.867188 -0.144531 3.785156 -0.394531 3.359375 -0.53125 C 2.804688 -0.664062 2.257812 -0.648438 1.71875 -0.484375 C 1.34375 -0.335938 0.953125 -0.296875 0.546875 -0.359375 C 0.390625 -0.367188 0.25 -0.410156 0.125 -0.484375 C 0.0078125 -0.566406 -0.0664062 -0.695312 -0.109375 -0.875 C -0.140625 -1.007812 -0.113281 -1.125 -0.03125 -1.21875 C 0.0390625 -1.3125 0.128906 -1.394531 0.234375 -1.46875 C 0.941406 -1.957031 1.585938 -2.507812 2.171875 -3.125 C 2.753906 -3.738281 3.304688 -4.378906 3.828125 -5.046875 C 3.921875 -5.179688 4.066406 -5.421875 4.265625 -5.765625 C 4.460938 -6.109375 4.632812 -6.476562 4.78125 -6.875 C 4.925781 -7.28125 4.96875 -7.625 4.90625 -7.90625 C 4.84375 -8.195312 4.609375 -8.351562 4.203125 -8.375 C 3.640625 -8.34375 3.125 -8.132812 2.65625 -7.75 C 2.1875 -7.375 1.875 -6.898438 1.71875 -6.328125 C 1.53125 -5.523438 1.085938 -5.257812 0.390625 -5.53125 C -0.0976562 -5.71875 -0.304688 -6.070312 -0.234375 -6.59375 C -0.148438 -7.09375 0.0625 -7.53125 0.40625 -7.90625 C 1.113281 -8.644531 1.890625 -9.132812 2.734375 -9.375 C 3.585938 -9.613281 4.5 -9.628906 5.46875 -9.421875 C 6.019531 -9.316406 6.410156 -9.085938 6.640625 -8.734375 C 6.867188 -8.390625 6.96875 -7.925781 6.9375 -7.34375 C 6.894531 -6.632812 6.679688 -5.976562 6.296875 -5.375 C 5.796875 -4.59375 5.21875 -3.847656 4.5625 -3.140625 C 3.976562 -2.472656 3.765625 -2.019531 3.921875 -1.78125 C 4.078125 -1.550781 4.40625 -1.488281 4.90625 -1.59375 C 5.40625 -1.707031 5.882812 -1.945312 6.34375 -2.3125 C 6.425781 -2.382812 6.503906 -2.453125 6.578125 -2.515625 C 7.847656 -3.566406 9.148438 -4.566406 10.484375 -5.515625 C 10.710938 -5.648438 10.9375 -5.765625 11.15625 -5.859375 C 11.382812 -5.953125 11.628906 -5.972656 11.890625 -5.921875 C 12.109375 -5.890625 12.265625 -5.78125 12.359375 -5.59375 Z M 1.15625 8.328125 C 1.488281 8.554688 1.914062 8.523438 2.4375 8.234375 C 2.957031 7.941406 3.457031 7.460938 3.9375 6.796875 C 4.425781 6.128906 4.78125 5.34375 5 4.4375 C 5.21875 3.53125 5.191406 2.570312 4.921875 1.5625 C 4.765625 1.71875 4.425781 2.09375 3.90625 2.6875 C 3.394531 3.289062 2.859375 3.976562 2.296875 4.75 C 1.742188 5.53125 1.328125 6.253906 1.046875 6.921875 C 0.773438 7.585938 0.8125 8.054688 1.15625 8.328125 Z M 1.15625 8.328125 "/></g></g></g></svg>